<?xml version="1.0" encoding="utf-8" standalone="no"?>
<!DOCTYPE svg PUBLIC "-//W3C//DTD SVG 1.1//EN"
  "http://www.w3.org/Graphics/SVG/1.1/DTD/svg11.dtd">
<svg xmlns:xlink="http://www.w3.org/1999/xlink" width="460.8pt" height="345.6pt" viewBox="0 0 460.8 345.6" xmlns="http://www.w3.org/2000/svg" version="1.1">
 <metadata>
  <rdf:RDF xmlns:dc="http://purl.org/dc/elements/1.1/" xmlns:cc="http://creativecommons.org/ns#" xmlns:rdf="http://www.w3.org/1999/02/22-rdf-syntax-ns#">
   <cc:Work>
    <dc:type rdf:resource="http://purl.org/dc/dcmitype/StillImage"/>
    <dc:date>2022-12-27T16:37:48.400336</dc:date>
    <dc:format>image/svg+xml</dc:format>
    <dc:creator>
     <cc:Agent>
      <dc:title>Matplotlib v3.6.2, https://matplotlib.org/</dc:title>
     </cc:Agent>
    </dc:creator>
   </cc:Work>
  </rdf:RDF>
 </metadata>
 <defs>
  <style type="text/css">*{stroke-linejoin: round; stroke-linecap: butt}</style>
 </defs>
 <g id="figure_1">
  <g id="patch_1">
   <path d="M 0 345.6 
L 460.8 345.6 
L 460.8 0 
L 0 0 
z
" style="fill: #ffffff"/>
  </g>
  <g id="axes_1">
   <g id="patch_2">
    <path d="M 236.16 71.654919 
C 221.288149 65.087349 205.027923 62.273372 188.813921 63.461259 
C 172.59992 64.649146 156.923434 69.802903 143.167562 78.467826 
C 129.411689 87.132749 117.993239 99.046289 109.919633 113.157341 
C 101.846027 127.268393 97.361899 143.149389 96.862872 159.399186 
C 96.363845 175.648982 99.86504 191.775205 107.057555 206.355076 
C 114.250071 220.934947 124.91597 233.526691 138.114228 243.019368 
C 151.312485 252.512046 166.643188 258.618025 182.753745 260.79859 
C 198.864302 262.979156 215.266558 261.168235 230.51338 255.525602 
C 230.570791 255.503461 230.628331 255.481658 230.685998 255.460194 
C 230.743665 255.438731 230.801458 255.417606 230.859373 255.396822 
C 231.752966 255.062332 232.641689 254.714973 233.525264 254.354854 
C 234.40884 253.994735 235.287176 253.621893 236.16 253.236445 
C 218.563185 245.465501 203.599396 232.743788 193.098177 216.626721 
C 182.596957 200.509653 177.004466 181.681988 177.004466 162.445682 
C 177.004466 143.209376 182.596957 124.38171 193.098177 108.264643 
C 203.599396 92.147576 218.563185 79.425862 236.16 71.654919 
" clip-path="url(#p47df69d95a)" style="fill: #ff0000; opacity: 0.4"/>
   </g>
   <g id="patch_3">
    <path d="M 236.16 253.236445 
C 237.032824 253.621893 237.91116 253.994735 238.794736 254.354854 
C 239.678311 254.714973 240.567034 255.062332 241.460627 255.396822 
C 241.518542 255.417606 241.576335 255.438731 241.634002 255.460194 
C 241.691669 255.481658 241.749209 255.503461 241.80662 255.525602 
C 257.053442 261.168235 273.455698 262.979156 289.566255 260.79859 
C 305.676812 258.618025 321.007515 252.512046 334.205772 243.019368 
C 347.40403 233.526691 358.069929 220.934947 365.262445 206.355076 
C 372.45496 191.775205 375.956155 175.648982 375.457128 159.399186 
C 374.958101 143.149389 370.473973 127.268393 362.400367 113.157341 
C 354.326761 99.046289 342.908311 87.132749 329.152438 78.467826 
C 315.396566 69.802903 299.72008 64.649146 283.506079 63.461259 
C 267.292077 62.273372 251.031851 65.087349 236.16 71.654919 
C 253.756815 79.425862 268.720604 92.147576 279.221823 108.264643 
C 289.723043 124.38171 295.315534 143.209376 295.315534 162.445682 
C 295.315534 181.681988 289.723043 200.509653 279.221823 216.626721 
C 268.720604 232.743788 253.756815 245.465501 236.16 253.236445 
" clip-path="url(#p47df69d95a)" style="fill: #008000; opacity: 0.4"/>
   </g>
   <g id="patch_4">
    <path d="M 236.16 253.236445 
C 253.756815 245.465501 268.720604 232.743788 279.221823 216.626721 
C 289.723043 200.509653 295.315534 181.681988 295.315534 162.445682 
C 295.315534 143.209376 289.723043 124.38171 279.221823 108.264643 
C 268.720604 92.147576 253.756815 79.425862 236.16 71.654919 
C 218.563185 79.425862 203.599396 92.147576 193.098177 108.264643 
C 182.596957 124.38171 177.004466 143.209376 177.004466 162.445682 
C 177.004466 181.681988 182.596957 200.509653 193.098177 216.626721 
C 203.599396 232.743788 218.563185 245.465501 236.16 253.236445 
" clip-path="url(#p47df69d95a)" style="fill: #b25900; opacity: 0.4"/>
   </g>
   <g id="patch_5">
    <path d="M 230.51338 255.525602 
C 228.817118 256.179772 227.247366 257.123767 225.874305 258.315382 
C 224.501244 259.506997 223.345644 260.928206 222.45917 262.515471 
C 221.572696 264.102735 220.968758 265.832043 220.674357 267.626081 
C 220.379956 269.420119 220.399545 271.251747 220.732249 273.039078 
C 221.064952 274.82641 221.705737 276.542405 222.625956 278.110347 
C 223.546175 279.678289 224.731907 281.074457 226.13014 282.236434 
C 227.528373 283.39841 229.117955 284.308616 230.82782 284.926358 
C 232.537685 285.5441 234.341967 285.860033 236.16 285.860033 
C 237.978033 285.860033 239.782315 285.5441 241.49218 284.926358 
C 243.202045 284.308616 244.791627 283.39841 246.18986 282.236434 
C 247.588093 281.074457 248.773825 279.678289 249.694044 278.110347 
C 250.614263 276.542405 251.255048 274.82641 251.587751 273.039078 
C 251.920455 271.251747 251.940044 269.420119 251.645643 267.626081 
C 251.351242 265.832043 250.747304 264.102735 249.86083 262.515471 
C 248.974356 260.928206 247.818756 259.506997 246.445695 258.315382 
C 245.072634 257.123767 243.502882 256.179772 241.80662 255.525602 
C 241.748914 255.504246 241.691229 255.482836 241.633563 255.461373 
C 241.575898 255.43991 241.518252 255.418393 241.460627 255.396822 
C 239.760045 254.78654 237.966771 254.474508 236.16 254.474508 
C 234.353229 254.474508 232.559955 254.78654 230.859373 255.396822 
C 230.801748 255.418393 230.744102 255.43991 230.686437 255.461373 
C 230.628771 255.482836 230.571086 255.504246 230.51338 255.525602 
" clip-path="url(#p47df69d95a)" style="fill: #ffffff; opacity: 0.4; stroke: #ffffff; stroke-linejoin: miter"/>
   </g>
   <g id="patch_6">
    <path d="M 230.51338 255.525602 
C 230.571086 255.504246 230.628771 255.482836 230.686437 255.461373 
C 230.744102 255.43991 230.801748 255.418393 230.859373 255.396822 
C 230.801458 255.417606 230.743665 255.438731 230.685998 255.460194 
C 230.628331 255.481658 230.570791 255.503461 230.51338 255.525602 
" clip-path="url(#p47df69d95a)" style="fill: #b200b2; opacity: 0.4"/>
   </g>
   <g id="patch_7">
    <path d="M 241.460627 255.396822 
C 241.518252 255.418393 241.575898 255.43991 241.633563 255.461373 
C 241.691229 255.482836 241.748914 255.504246 241.80662 255.525602 
C 241.749209 255.503461 241.691669 255.481658 241.634002 255.460194 
C 241.576335 255.438731 241.518542 255.417606 241.460627 255.396822 
" clip-path="url(#p47df69d95a)" style="fill: #0059b2; opacity: 0.4"/>
   </g>
   <g id="text_1">
    <!-- 10 -->
    <g transform="translate(121.620304 153.304727) scale(0.1 -0.1)">
     <defs>
      <path id="DejaVuSans-31" d="M 794 531 
L 1825 531 
L 1825 4091 
L 703 3866 
L 703 4441 
L 1819 4666 
L 2450 4666 
L 2450 531 
L 3481 531 
L 3481 0 
L 794 0 
L 794 531 
z
" transform="scale(0.015625)"/>
      <path id="DejaVuSans-30" d="M 2034 4250 
Q 1547 4250 1301 3770 
Q 1056 3291 1056 2328 
Q 1056 1369 1301 889 
Q 1547 409 2034 409 
Q 2525 409 2770 889 
Q 3016 1369 3016 2328 
Q 3016 3291 2770 3770 
Q 2525 4250 2034 4250 
z
M 2034 4750 
Q 2819 4750 3233 4129 
Q 3647 3509 3647 2328 
Q 3647 1150 3233 529 
Q 2819 -91 2034 -91 
Q 1250 -91 836 529 
Q 422 1150 422 2328 
Q 422 3509 836 4129 
Q 1250 4750 2034 4750 
z
" transform="scale(0.015625)"/>
     </defs>
     <use xlink:href="#DejaVuSans-31"/>
     <use xlink:href="#DejaVuSans-30" x="63.623047"/>
    </g>
    <!-- 18 -->
    <g transform="translate(121.620304 164.502539) scale(0.1 -0.1)">
     <defs>
      <path id="DejaVuSans-38" d="M 2034 2216 
Q 1584 2216 1326 1975 
Q 1069 1734 1069 1313 
Q 1069 891 1326 650 
Q 1584 409 2034 409 
Q 2484 409 2743 651 
Q 3003 894 3003 1313 
Q 3003 1734 2745 1975 
Q 2488 2216 2034 2216 
z
M 1403 2484 
Q 997 2584 770 2862 
Q 544 3141 544 3541 
Q 544 4100 942 4425 
Q 1341 4750 2034 4750 
Q 2731 4750 3128 4425 
Q 3525 4100 3525 3541 
Q 3525 3141 3298 2862 
Q 3072 2584 2669 2484 
Q 3125 2378 3379 2068 
Q 3634 1759 3634 1313 
Q 3634 634 3220 271 
Q 2806 -91 2034 -91 
Q 1263 -91 848 271 
Q 434 634 434 1313 
Q 434 1759 690 2068 
Q 947 2378 1403 2484 
z
M 1172 3481 
Q 1172 3119 1398 2916 
Q 1625 2713 2034 2713 
Q 2441 2713 2670 2916 
Q 2900 3119 2900 3481 
Q 2900 3844 2670 4047 
Q 2441 4250 2034 4250 
Q 1625 4250 1398 4047 
Q 1172 3844 1172 3481 
z
" transform="scale(0.015625)"/>
     </defs>
     <use xlink:href="#DejaVuSans-31"/>
     <use xlink:href="#DejaVuSans-38" x="63.623047"/>
    </g>
    <!--  -->
    <g transform="translate(127.982804 175.700352) scale(0.1 -0.1)"/>
   </g>
   <g id="text_2">
    <!-- 16 -->
    <g transform="translate(337.974696 147.70582) scale(0.1 -0.1)">
     <defs>
      <path id="DejaVuSans-36" d="M 2113 2584 
Q 1688 2584 1439 2293 
Q 1191 2003 1191 1497 
Q 1191 994 1439 701 
Q 1688 409 2113 409 
Q 2538 409 2786 701 
Q 3034 994 3034 1497 
Q 3034 2003 2786 2293 
Q 2538 2584 2113 2584 
z
M 3366 4563 
L 3366 3988 
Q 3128 4100 2886 4159 
Q 2644 4219 2406 4219 
Q 1781 4219 1451 3797 
Q 1122 3375 1075 2522 
Q 1259 2794 1537 2939 
Q 1816 3084 2150 3084 
Q 2853 3084 3261 2657 
Q 3669 2231 3669 1497 
Q 3669 778 3244 343 
Q 2819 -91 2113 -91 
Q 1303 -91 875 529 
Q 447 1150 447 2328 
Q 447 3434 972 4092 
Q 1497 4750 2381 4750 
Q 2619 4750 2861 4703 
Q 3103 4656 3366 4563 
z
" transform="scale(0.015625)"/>
     </defs>
     <use xlink:href="#DejaVuSans-31"/>
     <use xlink:href="#DejaVuSans-36" x="63.623047"/>
    </g>
    <!-- 2 -->
    <g transform="translate(341.155946 158.903633) scale(0.1 -0.1)">
     <defs>
      <path id="DejaVuSans-32" d="M 1228 531 
L 3431 531 
L 3431 0 
L 469 0 
L 469 531 
Q 828 903 1448 1529 
Q 2069 2156 2228 2338 
Q 2531 2678 2651 2914 
Q 2772 3150 2772 3378 
Q 2772 3750 2511 3984 
Q 2250 4219 1831 4219 
Q 1534 4219 1204 4116 
Q 875 4013 500 3803 
L 500 4441 
Q 881 4594 1212 4672 
Q 1544 4750 1819 4750 
Q 2544 4750 2975 4387 
Q 3406 4025 3406 3419 
Q 3406 3131 3298 2873 
Q 3191 2616 2906 2266 
Q 2828 2175 2409 1742 
Q 1991 1309 1228 531 
z
" transform="scale(0.015625)"/>
     </defs>
     <use xlink:href="#DejaVuSans-32"/>
    </g>
    <!-- 6 -->
    <g transform="translate(341.155946 170.101445) scale(0.1 -0.1)">
     <use xlink:href="#DejaVuSans-36"/>
    </g>
    <!--  -->
    <g transform="translate(344.337196 181.299258) scale(0.1 -0.1)"/>
   </g>
   <g id="text_3">
    <!-- 4 -->
    <g transform="translate(232.97875 154.007244) scale(0.1 -0.1)">
     <defs>
      <path id="DejaVuSans-34" d="M 2419 4116 
L 825 1625 
L 2419 1625 
L 2419 4116 
z
M 2253 4666 
L 3047 4666 
L 3047 1625 
L 3713 1625 
L 3713 1100 
L 3047 1100 
L 3047 0 
L 2419 0 
L 2419 1100 
L 313 1100 
L 313 1709 
L 2253 4666 
z
" transform="scale(0.015625)"/>
     </defs>
     <use xlink:href="#DejaVuSans-34"/>
    </g>
    <!-- 12 -->
    <g transform="translate(229.7975 165.205057) scale(0.1 -0.1)">
     <use xlink:href="#DejaVuSans-31"/>
     <use xlink:href="#DejaVuSans-32" x="63.623047"/>
    </g>
    <!--  -->
    <g transform="translate(236.16 176.402869) scale(0.1 -0.1)"/>
   </g>
   <g id="text_4">
    <!-- 8 -->
    <g transform="translate(232.97875 273.921348) scale(0.1 -0.1)">
     <use xlink:href="#DejaVuSans-38"/>
    </g>
    <!-- 14 -->
    <g transform="translate(229.7975 285.11916) scale(0.1 -0.1)">
     <use xlink:href="#DejaVuSans-31"/>
     <use xlink:href="#DejaVuSans-34" x="63.623047"/>
    </g>
    <!--  -->
    <g transform="translate(236.16 296.316973) scale(0.1 -0.1)"/>
   </g>
   <g id="text_5">
    <!-- A -->
    <g transform="translate(138.232212 63.195967) scale(0.12 -0.12)">
     <defs>
      <path id="DejaVuSans-41" d="M 2188 4044 
L 1331 1722 
L 3047 1722 
L 2188 4044 
z
M 1831 4666 
L 2547 4666 
L 4325 0 
L 3669 0 
L 3244 1197 
L 1141 1197 
L 716 0 
L 50 0 
L 1831 4666 
z
" transform="scale(0.015625)"/>
     </defs>
     <use xlink:href="#DejaVuSans-41"/>
    </g>
   </g>
   <g id="text_6">
    <!-- B -->
    <g transform="translate(325.879038 63.195967) scale(0.12 -0.12)">
     <defs>
      <path id="DejaVuSans-42" d="M 1259 2228 
L 1259 519 
L 2272 519 
Q 2781 519 3026 730 
Q 3272 941 3272 1375 
Q 3272 1813 3026 2020 
Q 2781 2228 2272 2228 
L 1259 2228 
z
M 1259 4147 
L 1259 2741 
L 2194 2741 
Q 2656 2741 2882 2914 
Q 3109 3088 3109 3444 
Q 3109 3797 2882 3972 
Q 2656 4147 2194 4147 
L 1259 4147 
z
M 628 4666 
L 2241 4666 
Q 2963 4666 3353 4366 
Q 3744 4066 3744 3513 
Q 3744 3084 3544 2831 
Q 3344 2578 2956 2516 
Q 3422 2416 3680 2098 
Q 3938 1781 3938 1306 
Q 3938 681 3513 340 
Q 3088 0 2303 0 
L 628 0 
L 628 4666 
z
" transform="scale(0.015625)"/>
     </defs>
     <use xlink:href="#DejaVuSans-42"/>
    </g>
   </g>
   <g id="text_7">
    <!-- U -->
    <g transform="translate(231.76875 296.547435) scale(0.12 -0.12)">
     <defs>
      <path id="DejaVuSans-55" d="M 556 4666 
L 1191 4666 
L 1191 1831 
Q 1191 1081 1462 751 
Q 1734 422 2344 422 
Q 2950 422 3222 751 
Q 3494 1081 3494 1831 
L 3494 4666 
L 4128 4666 
L 4128 1753 
Q 4128 841 3676 375 
Q 3225 -91 2344 -91 
Q 1459 -91 1007 375 
Q 556 841 556 1753 
L 556 4666 
z
" transform="scale(0.015625)"/>
     </defs>
     <use xlink:href="#DejaVuSans-55"/>
    </g>
   </g>
  </g>
 </g>
 <defs>
  <clipPath id="p47df69d95a">
   <rect x="75.092138" y="41.472" width="322.135725" height="266.112"/>
  </clipPath>
 </defs>
</svg>
